# xmcd CD database file
#
# Track frame offsets:
#	150
#	15706
#	38853
#	55320
#
# Disc length: 891 seconds
#
# Revision: 2
# Processed by: cddbd v1.4b41PL1 Copyright (c) Steve Scherf et al.
# Submitted via: Feurio! 1.50.2ß - http://www.feurio.com
#
DISCID=2c037904
DTITLE=Liquido - Play Some Rock
DYEAR=1900
DGENRE=
TTITLE0=Play Some Rock
TTITLE1=Curtainfall (long version)
TTITLE2=Heartbreaker No. 1
TTITLE3=Fake Of Emotions (demo '96)
EXTD=
EXTT0=
EXTT1=
EXTT2=
EXTT3=
PLAYORDER=
